<svg width="465" height="85" viewBox="0 0 465 85" fill="none" xmlns="http://www.w3.org/2000/svg">
<path d="M0.096 68.016C2.208 61.104 7.072 57.168 14.688 56.208L25.344 28.272C24.128 26.096 22.208 25.008 19.584 25.008C16.896 25.008 14.944 26.32 13.728 28.944L13.536 25.872C13.408 23.504 14.24 21.392 16.032 19.536C17.888 17.616 20.096 16.656 22.656 16.656C24.768 16.656 26.816 17.52 28.8 19.248C30.08 15.92 30.72 14.32 30.72 14.448C30.72 13.04 29.792 11.856 27.936 10.896C26.4 10.128 24.832 9.744 23.232 9.744C19.712 9.744 16.928 11.024 14.88 13.584C15.2 10.192 16.672 7.248 19.296 4.752C21.92 2.256 24.992 0.879995 28.512 0.623995C30.56 0.495996 32.128 0.783997 33.216 1.488C34.304 2.192 35.36 2.928 36.384 3.696L54.528 49.968C56.512 55.024 59.104 57.552 62.304 57.552C63.456 57.552 64.64 57.232 65.856 56.592C63.744 59.152 62.24 61.04 61.344 62.256C59.68 64.432 58.464 66.512 57.696 68.496C54.816 68.24 52.192 66.512 49.824 63.312C48.096 60.944 46.432 57.616 44.832 53.328C43.808 50.448 42.784 47.568 41.76 44.688H20.832L16.416 55.824C20.896 55.632 24.832 56.56 28.224 58.608L29.568 57.072L30.432 57.936C26.656 62.032 23.936 65.584 22.272 68.592C18.88 66.16 14.816 64.944 10.08 64.944C5.984 64.944 2.656 65.968 0.096 68.016ZM23.616 36.912H39.552L31.392 16.272L23.616 36.912ZM96.0173 18.864C97.0413 20.72 98.5773 22.224 100.625 23.376C102.673 24.528 104.753 25.104 106.865 25.104H107.345C106.065 27.216 104.145 28.912 101.585 30.192V59.856C102.545 61.968 103.025 64.048 103.025 66.096C103.025 71.088 100.945 75.312 96.7853 78.768C92.6893 82.224 87.6013 83.952 81.5213 83.952C78.4493 83.952 75.6013 83.056 72.9773 81.264C70.4173 79.536 68.8813 78.672 68.3693 78.672C66.6413 78.672 65.2973 79.792 64.3373 82.032C64.2093 80.752 64.1453 79.824 64.1453 79.248C64.1453 77.2 64.8173 75.44 66.1613 73.968C67.5693 72.496 69.1693 71.76 70.9613 71.76C73.3933 71.76 75.8893 73.424 78.4493 76.752C81.0733 80.08 83.6973 81.744 86.3213 81.744C88.8173 81.744 91.0253 80.848 92.9453 79.056C94.8653 77.328 95.8253 75.216 95.8253 72.72C95.8253 71.632 95.3133 69.712 94.2893 66.96C93.3293 64.272 92.8493 61.456 92.8493 58.512V54.576L78.6413 66.96C77.6813 65.168 76.3693 63.728 74.7053 62.64C73.1053 61.488 71.5053 60.912 69.9053 60.912C69.2653 60.912 68.2413 61.136 66.8333 61.584C67.5373 59.536 68.9453 57.872 71.0573 56.592V35.376C71.0573 32.688 70.5133 30.736 69.4253 29.52C68.3373 28.304 66.4493 27.664 63.7613 27.6C65.5532 26.064 66.8333 24.912 67.6013 24.144C69.2013 22.48 70.6413 20.656 71.9213 18.672C74.9933 19.44 77.0733 20.816 78.1613 22.8C79.2493 24.72 79.7933 27.728 79.7933 31.824V55.056C81.2013 55.824 82.8973 57.36 84.8813 59.664L92.8493 53.136V30.288C90.5453 29.456 89.0413 28.72 88.3373 28.08L86.4173 29.424L85.7453 28.272C90.4173 25.264 93.8413 22.128 96.0173 18.864ZM126.22 53.808C130.956 54.896 134.476 57.296 136.78 61.008L139.756 59.856V31.056C138.348 30.352 136.844 29.072 135.244 27.216L126.22 34.32V53.808ZM117.676 35.088C117.676 31.12 115.404 28.88 110.86 28.368C115.404 25.296 118.7 22.096 120.748 18.768C124.396 21.136 126.22 25.168 126.22 30.864V32.208L142.924 18.672C144.588 22.832 147.052 24.912 150.316 24.912C150.572 24.912 151.276 24.784 152.428 24.528C151.66 26.448 150.38 28.016 148.588 29.232V49.872C148.588 53.776 149.292 57.392 150.7 60.72C148.972 60.592 147.756 60.528 147.052 60.528C144.492 60.528 141.612 61.072 138.412 62.16C135.02 63.376 132.492 64.816 130.828 66.48C129.676 64.816 128.14 63.664 126.22 63.024V71.856C126.22 76.016 126.796 78.768 127.948 80.112C125.644 80.432 123.116 81.264 120.364 82.608C117.612 84.016 115.788 84.784 114.892 84.912C116.748 82.544 117.676 78.832 117.676 73.776V60.624H116.524C113.708 60.624 111.404 62.384 109.612 65.904C109.548 65.648 109.516 65.264 109.516 64.752C109.516 62.768 110.252 60.816 111.724 58.896C113.26 56.912 115.244 55.44 117.676 54.48V35.088ZM180.233 58.8L170.729 67.344C167.081 66.192 164.105 64.496 161.801 62.256C158.985 59.568 157.577 56.528 157.577 53.136C157.577 46.864 161.033 41.872 167.945 38.16L157.673 25.488C160.937 25.488 164.425 23.344 168.137 19.056C169.609 24.24 171.689 26.832 174.377 26.832C177.257 26.832 180.617 24.176 184.457 18.864C184.521 20.592 185.033 22 185.993 23.088C187.017 24.368 188.361 25.008 190.025 25.008C190.537 25.008 191.465 24.784 192.809 24.336C192.361 26.064 190.921 27.76 188.489 29.424V51.216C188.489 53.968 188.969 55.92 189.929 57.072C190.953 58.16 192.777 58.704 195.401 58.704L188.105 67.536C184.073 65.808 181.449 62.896 180.233 58.8ZM179.849 57.168V31.824C178.249 31.12 176.905 29.776 175.817 27.792C172.681 29.264 170.025 30 167.849 30C165.993 30 163.945 29.328 161.705 27.984L176.201 45.84L174.857 46.8L168.905 39.408C166.921 42.224 165.929 45.136 165.929 48.144C165.929 54.416 169.545 58.256 176.777 59.664L179.849 57.168ZM211.46 67.44C208.708 63.152 205.092 61.008 200.612 61.008C199.972 61.008 199.428 61.04 198.98 61.104C200.26 58.992 202.212 57.328 204.836 56.112V35.472C204.836 32.784 204.42 30.96 203.588 30C202.756 29.04 200.932 28.432 198.116 28.176C202.276 25.872 205.54 22.704 207.908 18.672C211.684 20.976 213.572 24.848 213.572 30.288L222.5 18.672C223.844 22.256 225.476 24.048 227.396 24.048C228.356 24.048 229.38 23.664 230.468 22.896C230.212 25.456 229.38 27.504 227.972 29.04C226.628 30.576 225.092 31.344 223.364 31.344C220.996 31.344 218.916 30.192 217.124 27.888L213.572 32.592V56.016C216.132 56.848 218.052 57.872 219.332 59.088L221.06 57.84L222.116 58.8C217.188 61.936 213.636 64.816 211.46 67.44ZM257.201 58.8L247.697 67.344C244.049 66.192 241.073 64.496 238.769 62.256C235.953 59.568 234.545 56.528 234.545 53.136C234.545 46.864 238.001 41.872 244.913 38.16L234.641 25.488C237.905 25.488 241.393 23.344 245.105 19.056C246.577 24.24 248.657 26.832 251.345 26.832C254.225 26.832 257.585 24.176 261.425 18.864C261.489 20.592 262.001 22 262.961 23.088C263.985 24.368 265.329 25.008 266.993 25.008C267.505 25.008 268.433 24.784 269.777 24.336C269.329 26.064 267.889 27.76 265.457 29.424V51.216C265.457 53.968 265.937 55.92 266.897 57.072C267.921 58.16 269.745 58.704 272.369 58.704L265.073 67.536C261.041 65.808 258.417 62.896 257.201 58.8ZM256.817 57.168V31.824C255.217 31.12 253.873 29.776 252.785 27.792C249.649 29.264 246.993 30 244.817 30C242.961 30 240.913 29.328 238.673 27.984L253.169 45.84L251.825 46.8L245.873 39.408C243.889 42.224 242.897 45.136 242.897 48.144C242.897 54.416 246.513 58.256 253.745 59.664L256.817 57.168ZM307.045 84.432C307.749 79.952 308.101 76.208 308.101 73.2V62.544C304.325 62.672 301.893 64.88 300.805 69.168C299.973 67.376 299.557 65.616 299.557 63.888C299.557 58.064 302.405 54.544 308.101 53.328V38.544C307.461 38.48 306.725 38.448 305.893 38.448C302.885 38.448 301.381 39.888 301.381 42.768C300.101 41.104 299.461 39.248 299.461 37.2C299.461 32.592 301.829 30.288 306.565 30.288C307.205 30.288 307.717 30.288 308.101 30.288V17.52C308.101 15.408 307.941 13.904 307.621 13.008C307.045 11.536 305.925 10.8 304.261 10.8C301.765 10.8 299.845 12.688 298.501 16.464C297.541 14.736 297.061 13.392 297.061 12.432C297.061 9.04 298.053 6.32 300.037 4.272C302.021 2.16 304.613 1.10399 307.813 1.10399C314.021 1.10399 317.125 5.424 317.125 14.064C317.125 14.704 317.093 15.472 317.029 16.368L321.637 13.776V0.911997H322.981V12.72C329.445 8.624 334.629 4.624 338.533 0.719999C340.837 3.984 343.301 5.616 345.925 5.616C347.333 5.616 348.517 5.168 349.477 4.272V4.464C349.477 7.536 347.685 10.288 344.101 12.72V52.368C344.101 55.952 344.709 58.96 345.925 61.392C344.837 61.328 343.845 61.296 342.949 61.296C335.653 61.296 330.149 63.824 326.437 68.88L322.981 66.096V84.24C320.997 83.856 318.021 81.904 314.053 78.384C312.197 80.752 309.861 82.768 307.045 84.432ZM321.637 82.032V15.216L317.029 18V68.688C317.029 72.016 317.221 74.416 317.605 75.888C318.245 78.32 319.589 80.368 321.637 82.032ZM322.981 54.096C327.013 55.376 330.533 57.552 333.541 60.624L335.077 59.856V46.416C332.901 45.84 330.917 45.552 329.125 45.552C326.885 45.552 324.837 45.84 322.981 46.416V54.096ZM322.981 44.976C325.029 44.4 326.917 44.112 328.645 44.112C331.013 44.112 333.157 44.4 335.077 44.976V25.488C333.669 26 331.685 26.256 329.125 26.256C326.629 26.256 324.581 25.968 322.981 25.392V44.976ZM322.981 24.048C324.901 24.752 327.013 25.104 329.317 25.104C331.109 25.104 333.029 24.752 335.077 24.048V13.488C333.221 12.4 331.653 11.088 330.373 9.552L322.981 14.352V24.048ZM352.511 62.928C352.959 59.984 354.719 57.584 357.791 55.728V33.84C357.791 30.96 357.087 28.336 355.679 25.968L359.711 26.064C368.287 26.256 376.063 23.824 383.039 18.768C384.703 22.928 387.167 25.008 390.431 25.008C391.135 25.008 391.871 24.944 392.639 24.816C391.871 26.736 390.591 28.304 388.799 29.52V50.448C388.799 54.416 389.471 57.936 390.815 61.008C388.063 60.624 386.079 60.432 384.863 60.432C377.823 60.432 371.231 62.896 365.087 67.824C362.207 64.368 358.911 62.64 355.199 62.64C354.303 62.64 353.407 62.736 352.511 62.928ZM366.623 55.056C369.887 56.272 372.287 58.192 373.823 60.816C375.167 60.368 377.247 59.856 380.063 59.28V31.056C377.375 30.48 374.911 28.656 372.671 25.584C371.327 25.968 369.311 26.48 366.623 27.12V55.056ZM398.137 67.44H396.985C396.985 63.984 398.425 60.304 401.305 56.4C402.649 54.608 405.369 51.6 409.465 47.376H400.633C401.849 45.52 402.457 43.312 402.457 40.752V29.232C402.457 27.568 401.817 26.032 400.537 24.624C403.865 24.816 405.465 24.912 405.337 24.912C411.929 24.912 417.689 22.992 422.617 19.152C424.409 21.328 426.233 22.416 428.089 22.416C430.073 22.416 431.161 21.328 431.353 19.152H432.985C432.473 22.48 431.193 25.712 429.145 28.848C427.865 30.832 425.529 33.744 422.137 37.584H433.081C431.929 38.608 431.353 40.752 431.353 44.016V54.96C431.353 57.968 431.961 60.464 433.177 62.448C430.681 61.68 428.153 61.296 425.593 61.296C419.641 61.296 414.681 63.408 410.713 67.632C407.769 64.176 405.145 62.448 402.841 62.448C400.025 62.448 398.457 64.112 398.137 67.44ZM400.921 59.184C403.993 57.008 407.065 55.92 410.137 55.92C413.017 55.92 415.833 57.488 418.585 60.624L422.617 59.76V42H417.817C415.577 44.432 412.089 47.824 407.353 52.176C403.897 55.376 401.753 57.712 400.921 59.184ZM413.593 43.152C417.177 39.504 420.761 35.824 424.345 32.112C427.353 28.976 429.081 26.512 429.529 24.72C426.969 27.536 424.409 28.944 421.849 28.944C419.161 28.944 417.017 27.472 415.417 24.528L411.193 25.584V43.152H413.593ZM440.36 63.6C441 61.04 442.856 59.056 445.928 57.648V27.216H445.064C441.992 27.216 439.688 27.728 438.152 28.752C438.408 26.448 438.536 25.264 438.536 25.2C438.536 24.496 438.408 23.184 438.152 21.264C439.944 22.032 442.056 22.416 444.488 22.416H445.928V20.688C445.928 16.848 444.808 13.968 442.568 12.048C447.624 11.536 452.616 9.04 457.544 4.56L458.216 5.232C455.848 7.792 454.664 12.528 454.664 19.44V22.416H456.104C458.6 22.416 460.68 22.032 462.344 21.264C462.088 23.184 461.96 24.432 461.96 25.008C461.96 25.456 462.088 26.704 462.344 28.752C460.744 27.728 458.44 27.216 455.432 27.216H454.664V55.632C457.224 56.4 459.304 57.968 460.904 60.336L463.304 58.608L464.168 59.856C458.728 63.696 455.368 66.608 454.088 68.592C453.256 66.928 451.976 65.584 450.248 64.56C448.52 63.536 446.728 63.024 444.872 63.024C443.592 63.024 442.088 63.216 440.36 63.6Z" fill="black"/>
</svg>
