<svg width="700" height="153" viewBox="0 0 700 153" fill="none" xmlns="http://www.w3.org/2000/svg">
<path d="M0.144 125.024C3.312 114.656 10.608 108.752 22.032 107.312L38.016 65.408C36.192 62.144 33.312 60.512 29.376 60.512C25.344 60.512 22.416 62.48 20.592 66.416L20.304 61.808C20.112 58.256 21.36 55.088 24.048 52.304C26.832 49.424 30.144 47.984 33.984 47.984C37.152 47.984 40.224 49.28 43.2 51.872C45.12 46.88 46.08 44.48 46.08 44.672C46.08 42.56 44.688 40.784 41.904 39.344C39.6 38.192 37.248 37.616 34.848 37.616C29.568 37.616 25.392 39.536 22.32 43.376C22.8 38.288 25.008 33.872 28.944 30.128C32.88 26.384 37.488 24.32 42.768 23.936C45.84 23.744 48.192 24.176 49.824 25.232C51.456 26.288 53.04 27.392 54.576 28.544L81.792 97.952C84.768 105.536 88.656 109.328 93.456 109.328C95.184 109.328 96.96 108.848 98.784 107.888C95.616 111.728 93.36 114.56 92.016 116.384C89.52 119.648 87.696 122.768 86.544 125.744C82.224 125.36 78.288 122.768 74.736 117.968C72.144 114.416 69.648 109.424 67.248 102.992C65.712 98.672 64.176 94.352 62.64 90.032H31.248L24.624 106.736C31.344 106.448 37.248 107.84 42.336 110.912L44.352 108.608L45.648 109.904C39.984 116.048 35.904 121.376 33.408 125.888C28.32 122.24 22.224 120.416 15.12 120.416C8.976 120.416 3.984 121.952 0.144 125.024ZM35.424 78.368H59.328L47.088 47.408L35.424 78.368ZM144.026 51.296C145.562 54.08 147.866 56.336 150.938 58.064C154.01 59.792 157.13 60.656 160.298 60.656H161.018C159.098 63.824 156.218 66.368 152.378 68.288V112.784C153.818 115.952 154.538 119.072 154.538 122.144C154.538 129.632 151.418 135.968 145.178 141.152C139.034 146.336 131.402 148.928 122.282 148.928C117.674 148.928 113.402 147.584 109.466 144.896C105.626 142.304 103.322 141.008 102.554 141.008C99.9619 141.008 97.9459 142.688 96.5059 146.048C96.3139 144.128 96.2179 142.736 96.2179 141.872C96.2179 138.8 97.2259 136.16 99.2419 133.952C101.354 131.744 103.754 130.64 106.442 130.64C110.09 130.64 113.834 133.136 117.674 138.128C121.61 143.12 125.546 145.616 129.482 145.616C133.226 145.616 136.538 144.272 139.418 141.584C142.298 138.992 143.738 135.824 143.738 132.08C143.738 130.448 142.97 127.568 141.434 123.44C139.994 119.408 139.274 115.184 139.274 110.768V104.864L117.962 123.44C116.522 120.752 114.554 118.592 112.058 116.96C109.658 115.232 107.258 114.368 104.858 114.368C103.898 114.368 102.362 114.704 100.25 115.376C101.306 112.304 103.418 109.808 106.586 107.888V76.064C106.586 72.032 105.77 69.104 104.138 67.28C102.506 65.456 99.6739 64.496 95.6419 64.4C98.3299 62.096 100.25 60.368 101.402 59.216C103.802 56.72 105.962 53.984 107.882 51.008C112.49 52.16 115.61 54.224 117.242 57.2C118.874 60.08 119.69 64.592 119.69 70.736V105.584C121.802 106.736 124.346 109.04 127.322 112.496L139.274 102.704V68.432C135.818 67.184 133.562 66.08 132.506 65.12L129.626 67.136L128.618 65.408C135.626 60.896 140.762 56.192 144.026 51.296ZM189.33 103.712C196.434 105.344 201.714 108.944 205.17 114.512L209.634 112.784V69.584C207.522 68.528 205.266 66.608 202.866 63.824L189.33 74.48V103.712ZM176.514 75.632C176.514 69.68 173.106 66.32 166.29 65.552C173.106 60.944 178.05 56.144 181.122 51.152C186.594 54.704 189.33 60.752 189.33 69.296V71.312L214.386 51.008C216.882 57.248 220.578 60.368 225.474 60.368C225.858 60.368 226.914 60.176 228.642 59.792C227.49 62.672 225.57 65.024 222.882 66.848V97.808C222.882 103.664 223.938 109.088 226.05 114.08C223.458 113.888 221.634 113.792 220.578 113.792C216.738 113.792 212.418 114.608 207.618 116.24C202.53 118.064 198.738 120.224 196.242 122.72C194.514 120.224 192.21 118.496 189.33 117.536V130.784C189.33 137.024 190.194 141.152 191.922 143.168C188.466 143.648 184.674 144.896 180.546 146.912C176.418 149.024 173.682 150.176 172.338 150.368C175.122 146.816 176.514 141.248 176.514 133.664V113.936H174.786C170.562 113.936 167.106 116.576 164.418 121.856C164.322 121.472 164.274 120.896 164.274 120.128C164.274 117.152 165.378 114.224 167.586 111.344C169.89 108.368 172.866 106.16 176.514 104.72V75.632ZM270.349 111.2L256.093 124.016C250.621 122.288 246.157 119.744 242.701 116.384C238.477 112.352 236.365 107.792 236.365 102.704C236.365 93.296 241.549 85.808 251.917 80.24L236.509 61.232C241.405 61.232 246.637 58.016 252.205 51.584C254.413 59.36 257.533 63.248 261.565 63.248C265.885 63.248 270.925 59.264 276.685 51.296C276.781 53.888 277.549 56 278.989 57.632C280.525 59.552 282.541 60.512 285.037 60.512C285.805 60.512 287.197 60.176 289.213 59.504C288.541 62.096 286.381 64.64 282.733 67.136V99.824C282.733 103.952 283.453 106.88 284.893 108.608C286.429 110.24 289.165 111.056 293.101 111.056L282.157 124.304C276.109 121.712 272.173 117.344 270.349 111.2ZM269.773 108.752V70.736C267.373 69.68 265.357 67.664 263.725 64.688C259.021 66.896 255.037 68 251.773 68C248.989 68 245.917 66.992 242.557 64.976L264.301 91.76L262.285 93.2L253.357 82.112C250.381 86.336 248.893 90.704 248.893 95.216C248.893 104.624 254.317 110.384 265.165 112.496L269.773 108.752ZM317.19 124.16C313.062 117.728 307.638 114.512 300.918 114.512C299.958 114.512 299.142 114.56 298.47 114.656C300.39 111.488 303.318 108.992 307.254 107.168V76.208C307.254 72.176 306.63 69.44 305.382 68C304.134 66.56 301.398 65.648 297.174 65.264C303.414 61.808 308.31 57.056 311.862 51.008C317.526 54.464 320.358 60.272 320.358 68.432L333.75 51.008C335.766 56.384 338.214 59.072 341.094 59.072C342.534 59.072 344.07 58.496 345.702 57.344C345.318 61.184 344.07 64.256 341.958 66.56C339.942 68.864 337.638 70.016 335.046 70.016C331.494 70.016 328.374 68.288 325.686 64.832L320.358 71.888V107.024C324.198 108.272 327.078 109.808 328.998 111.632L331.59 109.76L333.174 111.2C325.782 115.904 320.454 120.224 317.19 124.16ZM385.802 111.2L371.546 124.016C366.074 122.288 361.61 119.744 358.154 116.384C353.93 112.352 351.818 107.792 351.818 102.704C351.818 93.296 357.002 85.808 367.37 80.24L351.962 61.232C356.858 61.232 362.09 58.016 367.658 51.584C369.866 59.36 372.986 63.248 377.018 63.248C381.338 63.248 386.378 59.264 392.138 51.296C392.234 53.888 393.002 56 394.442 57.632C395.978 59.552 397.994 60.512 400.49 60.512C401.258 60.512 402.65 60.176 404.666 59.504C403.994 62.096 401.834 64.64 398.186 67.136V99.824C398.186 103.952 398.906 106.88 400.346 108.608C401.882 110.24 404.618 111.056 408.554 111.056L397.61 124.304C391.562 121.712 387.626 117.344 385.802 111.2ZM385.226 108.752V70.736C382.826 69.68 380.81 67.664 379.178 64.688C374.474 66.896 370.49 68 367.226 68C364.442 68 361.37 66.992 358.01 64.976L379.754 91.76L377.738 93.2L368.81 82.112C365.834 86.336 364.346 90.704 364.346 95.216C364.346 104.624 369.77 110.384 380.618 112.496L385.226 108.752ZM460.567 149.648C461.623 142.928 462.151 137.312 462.151 132.8V116.816C456.487 117.008 452.839 120.32 451.207 126.752C449.959 124.064 449.335 121.424 449.335 118.832C449.335 110.096 453.607 104.816 462.151 102.992V80.816C461.191 80.72 460.087 80.672 458.839 80.672C454.327 80.672 452.071 82.832 452.071 87.152C450.151 84.656 449.191 81.872 449.191 78.8C449.191 71.888 452.743 68.432 459.847 68.432C460.807 68.432 461.575 68.432 462.151 68.432V49.28C462.151 46.112 461.911 43.856 461.431 42.512C460.567 40.304 458.887 39.2 456.391 39.2C452.647 39.2 449.767 42.032 447.751 47.696C446.311 45.104 445.591 43.088 445.591 41.648C445.591 36.56 447.079 32.48 450.055 29.408C453.031 26.24 456.919 24.656 461.719 24.656C471.031 24.656 475.687 31.136 475.687 44.096C475.687 45.056 475.639 46.208 475.543 47.552L482.455 43.664V24.368H484.471V42.08C494.167 35.936 501.943 29.936 507.799 24.08C511.255 28.976 514.951 31.424 518.887 31.424C520.999 31.424 522.775 30.752 524.215 29.408V29.696C524.215 34.304 521.527 38.432 516.151 42.08V101.552C516.151 106.928 517.063 111.44 518.887 115.088C517.255 114.992 515.767 114.944 514.423 114.944C503.479 114.944 495.223 118.736 489.655 126.32L484.471 122.144V149.36C481.495 148.784 477.031 145.856 471.079 140.576C468.295 144.128 464.791 147.152 460.567 149.648ZM482.455 146.048V45.824L475.543 50V126.032C475.543 131.024 475.831 134.624 476.407 136.832C477.367 140.48 479.383 143.552 482.455 146.048ZM484.471 104.144C490.519 106.064 495.799 109.328 500.311 113.936L502.615 112.784V92.624C499.351 91.76 496.375 91.328 493.687 91.328C490.327 91.328 487.255 91.76 484.471 92.624V104.144ZM484.471 90.464C487.543 89.6 490.375 89.168 492.967 89.168C496.519 89.168 499.735 89.6 502.615 90.464V61.232C500.503 62 497.527 62.384 493.687 62.384C489.943 62.384 486.871 61.952 484.471 61.088V90.464ZM484.471 59.072C487.351 60.128 490.519 60.656 493.975 60.656C496.663 60.656 499.543 60.128 502.615 59.072V43.232C499.831 41.6 497.479 39.632 495.559 37.328L484.471 44.528V59.072ZM528.767 117.392C529.439 112.976 532.079 109.376 536.687 106.592V73.76C536.687 69.44 535.631 65.504 533.519 61.952L539.567 62.096C552.431 62.384 564.095 58.736 574.559 51.152C577.055 57.392 580.751 60.512 585.647 60.512C586.703 60.512 587.807 60.416 588.959 60.224C587.807 63.104 585.887 65.456 583.199 67.28V98.672C583.199 104.624 584.207 109.904 586.223 114.512C582.095 113.936 579.119 113.648 577.295 113.648C566.735 113.648 556.847 117.344 547.631 124.736C543.311 119.552 538.367 116.96 532.799 116.96C531.455 116.96 530.111 117.104 528.767 117.392ZM549.935 105.584C554.831 107.408 558.431 110.288 560.735 114.224C562.751 113.552 565.871 112.784 570.095 111.92V69.584C566.063 68.72 562.367 65.984 559.007 61.376C556.991 61.952 553.967 62.72 549.935 63.68V105.584ZM597.205 124.16H595.477C595.477 118.976 597.637 113.456 601.957 107.6C603.973 104.912 608.053 100.4 614.197 94.064H600.949C602.773 91.28 603.685 87.968 603.685 84.128V66.848C603.685 64.352 602.725 62.048 600.805 59.936C605.797 60.224 608.197 60.368 608.005 60.368C617.893 60.368 626.533 57.488 633.925 51.728C636.613 54.992 639.349 56.624 642.133 56.624C645.109 56.624 646.741 54.992 647.029 51.728H649.477C648.709 56.72 646.789 61.568 643.717 66.272C641.797 69.248 638.293 73.616 633.205 79.376H649.621C647.893 80.912 647.029 84.128 647.029 89.024V105.44C647.029 109.952 647.941 113.696 649.765 116.672C646.021 115.52 642.229 114.944 638.389 114.944C629.461 114.944 622.021 118.112 616.069 124.448C611.653 119.264 607.717 116.672 604.261 116.672C600.037 116.672 597.685 119.168 597.205 124.16ZM601.381 111.776C605.989 108.512 610.597 106.88 615.205 106.88C619.525 106.88 623.749 109.232 627.877 113.936L633.925 112.64V86H626.725C623.365 89.648 618.133 94.736 611.029 101.264C605.845 106.064 602.629 109.568 601.381 111.776ZM620.389 87.728C625.765 82.256 631.141 76.736 636.517 71.168C641.029 66.464 643.621 62.768 644.293 60.08C640.453 64.304 636.613 66.416 632.773 66.416C628.741 66.416 625.525 64.208 623.125 59.792L616.789 61.376V87.728H620.389ZM660.54 118.4C661.5 114.56 664.284 111.584 668.892 109.472V63.824H667.596C662.988 63.824 659.532 64.592 657.228 66.128C657.612 62.672 657.804 60.896 657.804 60.8C657.804 59.744 657.612 57.776 657.228 54.896C659.916 56.048 663.084 56.624 666.732 56.624H668.892V54.032C668.892 48.272 667.212 43.952 663.852 41.072C671.436 40.304 678.924 36.56 686.316 29.84L687.324 30.848C683.772 34.688 681.996 41.792 681.996 52.16V56.624H684.156C687.9 56.624 691.02 56.048 693.516 54.896C693.132 57.776 692.94 59.648 692.94 60.512C692.94 61.184 693.132 63.056 693.516 66.128C691.116 64.592 687.66 63.824 683.148 63.824H681.996V106.448C685.836 107.6 688.956 109.952 691.356 113.504L694.956 110.912L696.252 112.784C688.092 118.544 683.052 122.912 681.132 125.888C679.884 123.392 677.964 121.376 675.372 119.84C672.78 118.304 670.092 117.536 667.308 117.536C665.388 117.536 663.132 117.824 660.54 118.4Z" fill="#F7F7F5"/>
</svg>
